{
	"asset":{
		"generator":"Khronos glTF Blender I/O v4.4.56",
		"version":"2.0"
	},
	"extensionsUsed":[
		"KHR_materials_specular",
		"KHR_materials_ior",
		"KHR_texture_transform",
		"KHR_materials_sheen"
	],
	"extensionsRequired":[
		"KHR_texture_transform"
	],
	"scene":0,
	"scenes":[
		{
			"name":"Scene",
			"nodes":[
				0,
				1,
				2,
				3,
				4,
				5,
				6,
				7,
				8,
				9,
				10,
				11,
				12,
				13
			]
		}
	],
	"nodes":[
		{
			"mesh":0,
			"name":"upper",
			"scale":[
				0.3372383713722229,
				0.3372383713722229,
				0.3372383713722229
			],
			"translation":[
				0,
				1,
				0
			]
		},
		{
			"mesh":1,
			"name":"tredbase",
			"scale":[
				0.3372383713722229,
				0.3372383713722229,
				0.3372383713722229
			],
			"translation":[
				0,
				1,
				0
			]
		},
		{
			"mesh":2,
			"name":"Sphere",
			"scale":[
				1.5196726322174072,
				0.34852081537246704,
				1.0666557550430298
			],
			"translation":[
				1.235648512840271,
				0.3400000035762787,
				0.004103843122720718
			]
		},
		{
			"mesh":3,
			"name":"uppersole",
			"scale":[
				0.44845473766326904,
				0.44845473766326904,
				0.44845473766326904
			],
			"translation":[
				0,
				1.101103663444519,
				0
			]
		},
		{
			"mesh":4,
			"name":"strapper",
			"scale":[
				0.44845473766326904,
				0.44845473766326904,
				0.44845473766326904
			],
			"translation":[
				0,
				1.101103663444519,
				0
			]
		},
		{
			"mesh":5,
			"name":"soleouter",
			"scale":[
				0.3082371950149536,
				0.3082371950149536,
				0.3082371950149536
			],
			"translation":[
				0,
				0.9051103591918945,
				0
			]
		},
		{
			"mesh":6,
			"name":"tredoutside",
			"scale":[
				0.3053150773048401,
				0.3372383713722229,
				0.2904841899871826
			],
			"translation":[
				-0.060007598251104355,
				1.0480146408081055,
				0
			]
		},
		{
			"mesh":7,
			"name":"upper.001",
			"scale":[
				0.3372383713722229,
				0.3372383713722229,
				0.3372383713722229
			],
			"translation":[
				0,
				1,
				0
			]
		},
		{
			"mesh":8,
			"name":"strap",
			"rotation":[
				0,
				0,
				0.29072603583335876,
				0.9568063616752625
			],
			"scale":[
				0.8317199945449829,
				0.6110979318618774,
				0.32850098609924316
			],
			"translation":[
				-0.32848483324050903,
				1.0075008869171143,
				0.6929776072502136
			]
		},
		{
			"mesh":9,
			"name":"stlee.002",
			"rotation":[
				-0.008243067190051079,
				-0.02712869830429554,
				0.2906091511249542,
				0.9564217925071716
			],
			"scale":[
				0.5493542551994324,
				0.4962264597415924,
				0.4489784240722656
			],
			"translation":[
				0.19083482027053833,
				1.0765239000320435,
				0.5918890237808228
			]
		},
		{
			"mesh":10,
			"name":"backstrapo",
			"rotation":[
				0.11061586439609528,
				0.6984010934829712,
				0.11061587929725647,
				0.698401153087616
			],
			"scale":[
				0.8317200541496277,
				0.6110979318618774,
				0.32850098609924316
			],
			"translation":[
				2.1567368507385254,
				1.3753817081451416,
				-0.24467813968658447
			]
		},
		{
			"mesh":11,
			"name":"strapper.001",
			"scale":[
				0.44845473766326904,
				0.44845473766326904,
				0.44845473766326904
			],
			"translation":[
				0,
				1.101103663444519,
				0
			]
		},
		{
			"name":"shoetop"
		},
		{
			"name":"shoeside"
		}
	],
	"materials":[
		{
			"doubleSided":true,
			"name":"Blue Cloth",
			"normalTexture":{
				"index":0,
				"texCoord":1
			},
			"pbrMetallicRoughness":{
				"baseColorTexture":{
					"index":1,
					"texCoord":1
				},
				"metallicFactor":0,
				"metallicRoughnessTexture":{
					"index":2,
					"texCoord":1
				}
			}
		},
		{
			"doubleSided":true,
			"name":"Orange Fabric",
			"normalTexture":{
				"index":3,
				"texCoord":1
			},
			"pbrMetallicRoughness":{
				"baseColorTexture":{
					"index":4,
					"texCoord":1
				},
				"metallicFactor":0,
				"metallicRoughnessTexture":{
					"index":5,
					"texCoord":1
				}
			}
		},
		{
			"doubleSided":true,
			"extensions":{
				"KHR_materials_specular":{
					"specularFactor":0.4000000059604645
				}
			},
			"name":"Book Cover Fabric Orange",
			"normalTexture":{
				"extensions":{
					"KHR_texture_transform":{
						"offset":[
							0,
							-9
						],
						"scale":[
							10,
							10
						]
					}
				},
				"index":6,
				"texCoord":1
			},
			"pbrMetallicRoughness":{
				"baseColorTexture":{
					"index":7,
					"texCoord":1
				},
				"metallicFactor":0.20000000298023224,
				"metallicRoughnessTexture":{
					"index":8,
					"texCoord":1
				}
			}
		},
		{
			"doubleSided":true,
			"extensions":{
				"KHR_materials_specular":{
					"specularFactor":0.4000000059604645
				},
				"KHR_materials_ior":{
					"ior":1.4500000476837158
				}
			},
			"name":"Fabric 60",
			"normalTexture":{
				"extensions":{
					"KHR_texture_transform":{
						"offset":[
							-9.99999999999999,
							1.0000004371139
						],
						"rotation":1.5707963705062866,
						"scale":[
							10,
							10
						]
					}
				},
				"index":9,
				"texCoord":1
			},
			"pbrMetallicRoughness":{
				"baseColorTexture":{
					"index":10,
					"texCoord":1
				},
				"metallicFactor":0.20000000298023224,
				"metallicRoughnessTexture":{
					"index":11,
					"texCoord":1
				}
			}
		},
		{
			"doubleSided":true,
			"extensions":{
				"KHR_materials_specular":{
					"specularFactor":0.20000000298023224
				},
				"KHR_materials_sheen":{
					"sheenColorFactor":[
						1.0,
						1.0,
						1.0
					],
					"sheenRoughnessFactor":0.5
				},
				"KHR_materials_ior":{
					"ior":1.4500000476837158
				}
			},
			"name":"Soft Orange Fabric",
			"pbrMetallicRoughness":{
				"metallicFactor":0
			}
		},
		{
			"doubleSided":true,
			"name":"Crosshatched cloth",
			"normalTexture":{
				"index":12,
				"texCoord":1
			},
			"pbrMetallicRoughness":{
				"baseColorTexture":{
					"index":13,
					"texCoord":1
				},
				"metallicRoughnessTexture":{
					"index":14,
					"texCoord":1
				}
			}
		},
		{
			"doubleSided":true,
			"name":"Crosshatched cloth",
			"normalTexture":{
				"index":12
			},
			"pbrMetallicRoughness":{
				"baseColorTexture":{
					"index":13
				},
				"metallicRoughnessTexture":{
					"index":14
				}
			}
		},
		{
			"doubleSided":true,
			"extensions":{
				"KHR_materials_specular":{
					"specularFactor":0.4000000059604645
				},
				"KHR_materials_ior":{
					"ior":1.4500000476837158
				}
			},
			"name":"Fabric 3",
			"normalTexture":{
				"extensions":{
					"KHR_texture_transform":{
						"offset":[
							-4.999999999999995,
							1.00000021855695
						],
						"rotation":1.5707963705062866,
						"scale":[
							5,
							5
						]
					}
				},
				"index":15,
				"texCoord":1
			},
			"pbrMetallicRoughness":{
				"baseColorTexture":{
					"extensions":{
						"KHR_texture_transform":{
							"offset":[
								0,
								-14
							],
							"scale":[
								15,
								15
							]
						}
					},
					"index":16,
					"texCoord":1
				},
				"metallicFactor":0.20000000298023224,
				"metallicRoughnessTexture":{
					"extensions":{
						"KHR_texture_transform":{
							"offset":[
								0,
								-14
							],
							"scale":[
								15,
								15
							]
						}
					},
					"index":17,
					"texCoord":1
				}
			}
		},
		{
			"doubleSided":true,
			"extensions":{
				"KHR_materials_specular":{
					"specularFactor":0.4000000059604645
				}
			},
			"name":"Book Cover Fabric Orange",
			"normalTexture":{
				"extensions":{
					"KHR_texture_transform":{
						"offset":[
							0,
							-9
						],
						"scale":[
							10,
							10
						]
					}
				},
				"index":6
			},
			"pbrMetallicRoughness":{
				"baseColorTexture":{
					"index":7
				},
				"metallicFactor":0.20000000298023224,
				"metallicRoughnessTexture":{
					"index":8
				}
			}
		}
	],
	"meshes":[
		{
			"name":"Cube.001",
			"primitives":[
				{
					"attributes":{
						"POSITION":0,
						"NORMAL":1,
						"TEXCOORD_0":2,
						"TEXCOORD_1":3
					},
					"indices":4,
					"material":0
				}
			]
		},
		{
			"name":"Cube.002",
			"primitives":[
				{
					"attributes":{
						"POSITION":5,
						"NORMAL":6,
						"TEXCOORD_0":7,
						"TEXCOORD_1":8
					},
					"indices":9,
					"material":1
				}
			]
		},
		{
			"name":"Sphere",
			"primitives":[
				{
					"attributes":{
						"POSITION":10,
						"NORMAL":11,
						"TEXCOORD_0":12,
						"TEXCOORD_1":13
					},
					"indices":14,
					"material":2
				}
			]
		},
		{
			"name":"Cube.003",
			"primitives":[
				{
					"attributes":{
						"POSITION":15,
						"NORMAL":16,
						"TEXCOORD_0":17,
						"TEXCOORD_1":18
					},
					"indices":19,
					"material":2
				}
			]
		},
		{
			"name":"Cube.004",
			"primitives":[
				{
					"attributes":{
						"POSITION":20,
						"NORMAL":21,
						"TEXCOORD_0":22,
						"TEXCOORD_1":23
					},
					"indices":24,
					"material":3
				}
			]
		},
		{
			"name":"Cube.006",
			"primitives":[
				{
					"attributes":{
						"POSITION":25,
						"NORMAL":26,
						"TEXCOORD_0":27,
						"TEXCOORD_1":28
					},
					"indices":29,
					"material":4
				}
			]
		},
		{
			"name":"Cube.008",
			"primitives":[
				{
					"attributes":{
						"POSITION":30,
						"NORMAL":31,
						"TEXCOORD_0":32,
						"TEXCOORD_1":33
					},
					"indices":34,
					"material":5
				}
			]
		},
		{
			"name":"Cube.005",
			"primitives":[
				{
					"attributes":{
						"POSITION":35,
						"NORMAL":36,
						"TEXCOORD_0":37
					},
					"indices":38,
					"material":6
				}
			]
		},
		{
			"name":"Cube.007",
			"primitives":[
				{
					"attributes":{
						"POSITION":39,
						"NORMAL":40,
						"TEXCOORD_0":41,
						"TEXCOORD_1":42
					},
					"indices":43,
					"material":2
				}
			]
		},
		{
			"name":"Cube.009",
			"primitives":[
				{
					"attributes":{
						"POSITION":44,
						"NORMAL":45,
						"TEXCOORD_0":46,
						"TEXCOORD_1":47
					},
					"indices":48,
					"material":7
				}
			]
		},
		{
			"name":"Cube.010",
			"primitives":[
				{
					"attributes":{
						"POSITION":49,
						"NORMAL":50,
						"TEXCOORD_0":51
					},
					"indices":52,
					"material":8
				}
			]
		},
		{
			"name":"Cube.013",
			"primitives":[
				{
					"attributes":{
						"POSITION":53,
						"NORMAL":54
					},
					"indices":55
				}
			]
		}
	],
	"textures":[
		{
			"sampler":0,
			"source":0
		},
		{
			"sampler":0,
			"source":1
		},
		{
			"sampler":0,
			"source":2
		},
		{
			"sampler":0,
			"source":3
		},
		{
			"sampler":0,
			"source":4
		},
		{
			"sampler":0,
			"source":5
		},
		{
			"sampler":0,
			"source":6
		},
		{
			"sampler":0,
			"source":7
		},
		{
			"sampler":0,
			"source":8
		},
		{
			"sampler":0,
			"source":9
		},
		{
			"sampler":0,
			"source":10
		},
		{
			"sampler":0,
			"source":11
		},
		{
			"sampler":0,
			"source":12
		},
		{
			"sampler":0,
			"source":13
		},
		{
			"sampler":0,
			"source":14
		},
		{
			"sampler":0,
			"source":15
		},
		{
			"sampler":0,
			"source":16
		},
		{
			"sampler":0,
			"source":17
		}
	],
	"images":[
		{
			"mimeType":"image/jpeg",
			"name":"fabric_198_Normal",
			"uri":"fabric_198_Normal.jpg"
		},
		{
			"mimeType":"image/jpeg",
			"name":"fabric_198_Albedo",
			"uri":"fabric_198_Albedo.jpg"
		},
		{
			"mimeType":"image/png",
			"name":"fabric_198_Roughness",
			"uri":"fabric_198_Roughness.png"
		},
		{
			"mimeType":"image/jpeg",
			"name":"fabric_175_normal",
			"uri":"fabric_175_normal.jpg"
		},
		{
			"mimeType":"image/jpeg",
			"name":"fabric_175_basecolor",
			"uri":"fabric_175_basecolor.jpg"
		},
		{
			"mimeType":"image/png",
			"name":"fabric_175_roughness",
			"uri":"fabric_175_roughness.png"
		},
		{
			"mimeType":"image/jpeg",
			"name":"bump_reticular_05k",
			"uri":"bump_reticular_05k.jpg"
		},
		{
			"mimeType":"image/jpeg",
			"name":"book-fabric-orange_diffuse",
			"uri":"book-fabric-orange_diffuse.jpg"
		},
		{
			"mimeType":"image/png",
			"name":"book-fabric-1_roughness",
			"uri":"book-fabric-1_roughness.png"
		},
		{
			"mimeType":"image/jpeg",
			"name":"bump_reticular_05k",
			"uri":"bump_reticular_05k-1.jpg"
		},
		{
			"mimeType":"image/jpeg",
			"name":"fabric-60_diffuse",
			"uri":"fabric-60_diffuse.jpg"
		},
		{
			"mimeType":"image/png",
			"name":"fabric-60_smooth",
			"uri":"fabric-60_smooth.png"
		},
		{
			"mimeType":"image/jpeg",
			"name":"GWC Steel Weave_Normal",
			"uri":"GWC%20Steel%20Weave_Normal.jpg"
		},
		{
			"mimeType":"image/jpeg",
			"name":"GWC Steel Weave_BaseColor",
			"uri":"GWC%20Steel%20Weave_BaseColor.jpg"
		},
		{
			"mimeType":"image/png",
			"name":"GWC Steel Weave_Metallic-GWC Steel Weave_Roughness",
			"uri":"GWC%20Steel%20Weave_Metallic-GWC%20Steel%20Weave_Roughness.png"
		},
		{
			"mimeType":"image/jpeg",
			"name":"fibers",
			"uri":"fibers.jpg"
		},
		{
			"mimeType":"image/jpeg",
			"name":"Fabric-3_diffuse",
			"uri":"Fabric-3_diffuse.jpg"
		},
		{
			"mimeType":"image/png",
			"name":"Fabric-3_smooth",
			"uri":"Fabric-3_smooth.png"
		}
	],
	"accessors":[
		{
			"bufferView":0,
			"componentType":5126,
			"count":31890,
			"max":[
				6.082071304321289,
				2.5546460151672363,
				1.8313981294631958
			],
			"min":[
				-5.8037872314453125,
				-2.0719470977783203,
				-1.8313981294631958
			],
			"type":"VEC3"
		},
		{
			"bufferView":1,
			"componentType":5126,
			"count":31890,
			"type":"VEC3"
		},
		{
			"bufferView":2,
			"componentType":5126,
			"count":31890,
			"type":"VEC2"
		},
		{
			"bufferView":3,
			"componentType":5126,
			"count":31890,
			"type":"VEC2"
		},
		{
			"bufferView":4,
			"componentType":5123,
			"count":175548,
			"type":"SCALAR"
		},
		{
			"bufferView":5,
			"componentType":5126,
			"count":10533,
			"max":[
				6.2125139236450195,
				-1.050879955291748,
				1.7381404638290405
			],
			"min":[
				-5.85968017578125,
				-3.025761842727661,
				-1.7381404638290405
			],
			"type":"VEC3"
		},
		{
			"bufferView":6,
			"componentType":5126,
			"count":10533,
			"type":"VEC3"
		},
		{
			"bufferView":7,
			"componentType":5126,
			"count":10533,
			"type":"VEC2"
		},
		{
			"bufferView":8,
			"componentType":5126,
			"count":10533,
			"type":"VEC2"
		},
		{
			"bufferView":9,
			"componentType":5123,
			"count":54192,
			"type":"SCALAR"
		},
		{
			"bufferView":10,
			"componentType":5126,
			"count":349,
			"max":[
				0.49250468611717224,
				0.5446978807449341,
				0.49250468611717224
			],
			"min":[
				-0.49250468611717224,
				-0.5446978807449341,
				-0.49250468611717224
			],
			"type":"VEC3"
		},
		{
			"bufferView":11,
			"componentType":5126,
			"count":349,
			"type":"VEC3"
		},
		{
			"bufferView":12,
			"componentType":5126,
			"count":349,
			"type":"VEC2"
		},
		{
			"bufferView":13,
			"componentType":5126,
			"count":349,
			"type":"VEC2"
		},
		{
			"bufferView":14,
			"componentType":5123,
			"count":1440,
			"type":"SCALAR"
		},
		{
			"bufferView":15,
			"componentType":5126,
			"count":5366,
			"max":[
				4.57719087600708,
				-0.3960878551006317,
				1.419795274734497
			],
			"min":[
				-4.400345325469971,
				-1.6399916410446167,
				-1.419795274734497
			],
			"type":"VEC3"
		},
		{
			"bufferView":16,
			"componentType":5126,
			"count":5366,
			"type":"VEC3"
		},
		{
			"bufferView":17,
			"componentType":5126,
			"count":5366,
			"type":"VEC2"
		},
		{
			"bufferView":18,
			"componentType":5126,
			"count":5366,
			"type":"VEC2"
		},
		{
			"bufferView":19,
			"componentType":5123,
			"count":27648,
			"type":"SCALAR"
		},
		{
			"bufferView":20,
			"componentType":5126,
			"count":23310,
			"max":[
				4.6280694007873535,
				-0.0008483678102493286,
				1.4366074800491333
			],
			"min":[
				-2.5307657718658447,
				-1.021971583366394,
				-1.4366074800491333
			],
			"type":"VEC3"
		},
		{
			"bufferView":21,
			"componentType":5126,
			"count":23310,
			"type":"VEC3"
		},
		{
			"bufferView":22,
			"componentType":5126,
			"count":23310,
			"type":"VEC2"
		},
		{
			"bufferView":23,
			"componentType":5126,
			"count":23310,
			"type":"VEC2"
		},
		{
			"bufferView":24,
			"componentType":5123,
			"count":139008,
			"type":"SCALAR"
		},
		{
			"bufferView":25,
			"componentType":5126,
			"count":3682,
			"max":[
				6.0254740715026855,
				-1.8704530000686646,
				1.8023935556411743
			],
			"min":[
				-5.881310939788818,
				-3.0352933406829834,
				-1.8023912906646729
			],
			"type":"VEC3"
		},
		{
			"bufferView":26,
			"componentType":5126,
			"count":3682,
			"type":"VEC3"
		},
		{
			"bufferView":27,
			"componentType":5126,
			"count":3682,
			"type":"VEC2"
		},
		{
			"bufferView":28,
			"componentType":5126,
			"count":3682,
			"type":"VEC2"
		},
		{
			"bufferView":29,
			"componentType":5123,
			"count":12816,
			"type":"SCALAR"
		},
		{
			"bufferView":30,
			"componentType":5126,
			"count":1972,
			"max":[
				6.199746131896973,
				-1.432373046875,
				1.6703920364379883
			],
			"min":[
				-5.893712520599365,
				-3.025761842727661,
				-1.6703920364379883
			],
			"type":"VEC3"
		},
		{
			"bufferView":31,
			"componentType":5126,
			"count":1972,
			"type":"VEC3"
		},
		{
			"bufferView":32,
			"componentType":5126,
			"count":1972,
			"type":"VEC2"
		},
		{
			"bufferView":33,
			"componentType":5126,
			"count":1972,
			"type":"VEC2"
		},
		{
			"bufferView":34,
			"componentType":5123,
			"count":11616,
			"type":"SCALAR"
		},
		{
			"bufferView":35,
			"componentType":5126,
			"count":6786,
			"max":[
				5.989970684051514,
				1.8381706476211548,
				1.7429835796356201
			],
			"min":[
				-5.638409614562988,
				-1.9757097959518433,
				-1.7429838180541992
			],
			"type":"VEC3"
		},
		{
			"bufferView":36,
			"componentType":5126,
			"count":6786,
			"type":"VEC3"
		},
		{
			"bufferView":37,
			"componentType":5126,
			"count":6786,
			"type":"VEC2"
		},
		{
			"bufferView":38,
			"componentType":5123,
			"count":40704,
			"type":"SCALAR"
		},
		{
			"bufferView":39,
			"componentType":5126,
			"count":238,
			"max":[
				0.8154469728469849,
				-0.07970350980758667,
				-0.14589403569698334
			],
			"min":[
				0.28470781445503235,
				-0.5486612319946289,
				-4.073134899139404
			],
			"type":"VEC3"
		},
		{
			"bufferView":40,
			"componentType":5126,
			"count":238,
			"type":"VEC3"
		},
		{
			"bufferView":41,
			"componentType":5126,
			"count":238,
			"type":"VEC2"
		},
		{
			"bufferView":42,
			"componentType":5126,
			"count":238,
			"type":"VEC2"
		},
		{
			"bufferView":43,
			"componentType":5123,
			"count":648,
			"type":"SCALAR"
		},
		{
			"bufferView":44,
			"componentType":5126,
			"count":790,
			"max":[
				0.1302010864019394,
				0.9589702486991882,
				0.18897463381290436
			],
			"min":[
				-0.5012717843055725,
				-0.3732993006706238,
				-2.8387091159820557
			],
			"type":"VEC3"
		},
		{
			"bufferView":45,
			"componentType":5126,
			"count":790,
			"type":"VEC3"
		},
		{
			"bufferView":46,
			"componentType":5126,
			"count":790,
			"type":"VEC2"
		},
		{
			"bufferView":47,
			"componentType":5126,
			"count":790,
			"type":"VEC2"
		},
		{
			"bufferView":48,
			"componentType":5123,
			"count":4416,
			"type":"SCALAR"
		},
		{
			"bufferView":49,
			"componentType":5126,
			"count":6,
			"max":[
				-0.1622922122478485,
				0.042491763830184937,
				-0.27635201811790466
			],
			"min":[
				-0.3536168336868286,
				-0.19301411509513855,
				-0.5152296423912048
			],
			"type":"VEC3"
		},
		{
			"bufferView":50,
			"componentType":5126,
			"count":6,
			"type":"VEC3"
		},
		{
			"bufferView":51,
			"componentType":5126,
			"count":6,
			"type":"VEC2"
		},
		{
			"bufferView":52,
			"componentType":5123,
			"count":12,
			"type":"SCALAR"
		},
		{
			"bufferView":53,
			"componentType":5126,
			"count":56102,
			"max":[
				4.630011558532715,
				-0.1472485214471817,
				1.4407469034194946
			],
			"min":[
				-2.4754292964935303,
				-0.9557351469993591,
				-1.440746784210205
			],
			"type":"VEC3"
		},
		{
			"bufferView":54,
			"componentType":5126,
			"count":56102,
			"type":"VEC3"
		},
		{
			"bufferView":55,
			"componentType":5123,
			"count":332880,
			"type":"SCALAR"
		}
	],
	"bufferViews":[
		{
			"buffer":0,
			"byteLength":382680,
			"byteOffset":0,
			"target":34962
		},
		{
			"buffer":0,
			"byteLength":382680,
			"byteOffset":382680,
			"target":34962
		},
		{
			"buffer":0,
			"byteLength":255120,
			"byteOffset":765360,
			"target":34962
		},
		{
			"buffer":0,
			"byteLength":255120,
			"byteOffset":1020480,
			"target":34962
		},
		{
			"buffer":0,
			"byteLength":351096,
			"byteOffset":1275600,
			"target":34963
		},
		{
			"buffer":0,
			"byteLength":126396,
			"byteOffset":1626696,
			"target":34962
		},
		{
			"buffer":0,
			"byteLength":126396,
			"byteOffset":1753092,
			"target":34962
		},
		{
			"buffer":0,
			"byteLength":84264,
			"byteOffset":1879488,
			"target":34962
		},
		{
			"buffer":0,
			"byteLength":84264,
			"byteOffset":1963752,
			"target":34962
		},
		{
			"buffer":0,
			"byteLength":108384,
			"byteOffset":2048016,
			"target":34963
		},
		{
			"buffer":0,
			"byteLength":4188,
			"byteOffset":2156400,
			"target":34962
		},
		{
			"buffer":0,
			"byteLength":4188,
			"byteOffset":2160588,
			"target":34962
		},
		{
			"buffer":0,
			"byteLength":2792,
			"byteOffset":2164776,
			"target":34962
		},
		{
			"buffer":0,
			"byteLength":2792,
			"byteOffset":2167568,
			"target":34962
		},
		{
			"buffer":0,
			"byteLength":2880,
			"byteOffset":2170360,
			"target":34963
		},
		{
			"buffer":0,
			"byteLength":64392,
			"byteOffset":2173240,
			"target":34962
		},
		{
			"buffer":0,
			"byteLength":64392,
			"byteOffset":2237632,
			"target":34962
		},
		{
			"buffer":0,
			"byteLength":42928,
			"byteOffset":2302024,
			"target":34962
		},
		{
			"buffer":0,
			"byteLength":42928,
			"byteOffset":2344952,
			"target":34962
		},
		{
			"buffer":0,
			"byteLength":55296,
			"byteOffset":2387880,
			"target":34963
		},
		{
			"buffer":0,
			"byteLength":279720,
			"byteOffset":2443176,
			"target":34962
		},
		{
			"buffer":0,
			"byteLength":279720,
			"byteOffset":2722896,
			"target":34962
		},
		{
			"buffer":0,
			"byteLength":186480,
			"byteOffset":3002616,
			"target":34962
		},
		{
			"buffer":0,
			"byteLength":186480,
			"byteOffset":3189096,
			"target":34962
		},
		{
			"buffer":0,
			"byteLength":278016,
			"byteOffset":3375576,
			"target":34963
		},
		{
			"buffer":0,
			"byteLength":44184,
			"byteOffset":3653592,
			"target":34962
		},
		{
			"buffer":0,
			"byteLength":44184,
			"byteOffset":3697776,
			"target":34962
		},
		{
			"buffer":0,
			"byteLength":29456,
			"byteOffset":3741960,
			"target":34962
		},
		{
			"buffer":0,
			"byteLength":29456,
			"byteOffset":3771416,
			"target":34962
		},
		{
			"buffer":0,
			"byteLength":25632,
			"byteOffset":3800872,
			"target":34963
		},
		{
			"buffer":0,
			"byteLength":23664,
			"byteOffset":3826504,
			"target":34962
		},
		{
			"buffer":0,
			"byteLength":23664,
			"byteOffset":3850168,
			"target":34962
		},
		{
			"buffer":0,
			"byteLength":15776,
			"byteOffset":3873832,
			"target":34962
		},
		{
			"buffer":0,
			"byteLength":15776,
			"byteOffset":3889608,
			"target":34962
		},
		{
			"buffer":0,
			"byteLength":23232,
			"byteOffset":3905384,
			"target":34963
		},
		{
			"buffer":0,
			"byteLength":81432,
			"byteOffset":3928616,
			"target":34962
		},
		{
			"buffer":0,
			"byteLength":81432,
			"byteOffset":4010048,
			"target":34962
		},
		{
			"buffer":0,
			"byteLength":54288,
			"byteOffset":4091480,
			"target":34962
		},
		{
			"buffer":0,
			"byteLength":81408,
			"byteOffset":4145768,
			"target":34963
		},
		{
			"buffer":0,
			"byteLength":2856,
			"byteOffset":4227176,
			"target":34962
		},
		{
			"buffer":0,
			"byteLength":2856,
			"byteOffset":4230032,
			"target":34962
		},
		{
			"buffer":0,
			"byteLength":1904,
			"byteOffset":4232888,
			"target":34962
		},
		{
			"buffer":0,
			"byteLength":1904,
			"byteOffset":4234792,
			"target":34962
		},
		{
			"buffer":0,
			"byteLength":1296,
			"byteOffset":4236696,
			"target":34963
		},
		{
			"buffer":0,
			"byteLength":9480,
			"byteOffset":4237992,
			"target":34962
		},
		{
			"buffer":0,
			"byteLength":9480,
			"byteOffset":4247472,
			"target":34962
		},
		{
			"buffer":0,
			"byteLength":6320,
			"byteOffset":4256952,
			"target":34962
		},
		{
			"buffer":0,
			"byteLength":6320,
			"byteOffset":4263272,
			"target":34962
		},
		{
			"buffer":0,
			"byteLength":8832,
			"byteOffset":4269592,
			"target":34963
		},
		{
			"buffer":0,
			"byteLength":72,
			"byteOffset":4278424,
			"target":34962
		},
		{
			"buffer":0,
			"byteLength":72,
			"byteOffset":4278496,
			"target":34962
		},
		{
			"buffer":0,
			"byteLength":48,
			"byteOffset":4278568,
			"target":34962
		},
		{
			"buffer":0,
			"byteLength":24,
			"byteOffset":4278616,
			"target":34963
		},
		{
			"buffer":0,
			"byteLength":673224,
			"byteOffset":4278640,
			"target":34962
		},
		{
			"buffer":0,
			"byteLength":673224,
			"byteOffset":4951864,
			"target":34962
		},
		{
			"buffer":0,
			"byteLength":665760,
			"byteOffset":5625088,
			"target":34963
		}
	],
	"samplers":[
		{
			"magFilter":9729,
			"minFilter":9987
		}
	],
	"buffers":[
		{
			"byteLength":6290848,
			"uri":"shoe.bin"
		}
	]
}
